<?xml version="1.0" encoding="iso-8859-1"?>
<!-- Generator: Adobe Illustrator 19.0.0, SVG Export Plug-In . SVG Version: 6.00 Build 0)  -->
<svg version="1.1" id="Layer_1" xmlns="http://www.w3.org/2000/svg" xmlns:xlink="http://www.w3.org/1999/xlink" x="0px" y="0px"
	 viewBox="0 0 512 512" style="enable-background:new 0 0 512 512;" xml:space="preserve">
<polygon style="fill:#ABB9C6;" points="346.4,478.938 165.605,478.938 178.512,448.737 183.427,437.253 194.153,412.162 
	317.852,412.162 328.578,437.253 333.492,448.737 "/>
<polygon style="fill:#93A0AA;" points="328.578,437.253 183.427,437.253 194.153,412.162 317.852,412.162 "/>
<path style="fill:#B6C7D3;" d="M393.462,490.425H118.535l0,0c9.791-14.369,26.054-22.967,43.442-22.967h188.043
	C367.408,467.458,383.67,476.056,393.462,490.425L393.462,490.425z"/>
<path style="fill:#ABB9C6;" d="M512,55.095v326.991c0,18.511-14.997,33.52-33.509,33.52H33.509C14.997,415.606,0,400.597,0,382.086
	V55.095c0-18.511,14.997-33.52,33.509-33.52h444.983C497.003,21.575,512,36.584,512,55.095z"/>
<path style="fill:#C5D6E2;" d="M512,55.095v326.991c0,18.511-14.997,33.52-33.509,33.52H180.898l24.552-59.875L342.47,21.575
	h136.021C497.003,21.575,512,36.584,512,55.095z"/>
<path style="fill:#D4F7FC;" d="M512,55.095v300.636H205.45L342.47,21.575h136.021C497.003,21.575,512,36.584,512,55.095z"/>
<path style="fill:#93A0AA;" d="M256.002,393.214c-3.448,0-6.634-2.135-7.958-5.317c-1.465-3.521-0.359-7.694,2.622-10.058
	c6.24-4.949,15.53,0.968,13.723,8.703C263.488,390.388,259.968,393.214,256.002,393.214z"/>
<path style="fill:#B8E9F2;" d="M512,55.095v300.636H0V55.095c0-18.51,14.996-33.52,33.509-33.52h444.983
	C497.003,21.575,512,36.585,512,55.095"/>
<path style="fill:#ACD8EF;" d="M433.963,212.902c0,44.739-36.264,81.004-81.004,81.004H143.191
	c-35.978,0-65.156-29.168-65.156-65.157s29.178-65.157,65.156-65.157c2.16,0,4.295,0.115,6.396,0.31
	c11.196-45.991,52.65-80.143,102.088-80.143c21.485,0,41.466,6.454,58.106,17.535c12.368,8.199,22.875,18.971,30.81,31.533
	c4.031-0.609,8.165-0.93,12.368-0.93C397.7,131.896,433.963,168.162,433.963,212.902"/>
<path style="fill:#95C6DB;" d="M421.597,255.93c-14.32,22.806-39.71,37.976-68.638,37.976H143.191
	c-35.978,0-65.156-29.168-65.156-65.157c0-35.932,29.088-65.065,64.985-65.157c-20.762,9.784-35.127,30.89-35.127,55.362
	c0,33.784,27.387,61.172,61.171,61.172h196.929C387.95,280.126,407.736,270.812,421.597,255.93"/>
<polyline style="fill:#F75757;" points="281.861,147.431 281.861,61.94 230.144,61.94 230.144,147.431 199.995,147.431 
	256.002,225.004 312.009,147.431 281.861,147.431 "/>
<path style="fill:#D4F7FC;" d="M478.491,21.575H342.47l-32.689,79.718c0.001,0,0.001,0,0.001,0
	c12.368,8.199,22.875,18.971,30.81,31.533c4.031-0.609,8.165-0.93,12.368-0.93c44.739,0,81.004,36.265,81.004,81.004
	c0,44.06-35.169,79.899-78.969,80.979c-0.003,0-0.012,0-0.015,0c-0.052,0.001-0.108,0.002-0.158,0.003h-0.002
	c-0.108,0.002-0.217,0.005-0.325,0.007c-0.01,0-0.021,0-0.031,0c-0.041,0.001-0.083,0.001-0.124,0.002c-0.014,0-0.028,0-0.041,0.001
	c-0.106,0.001-0.206,0.003-0.311,0.005c-0.013,0-0.023,0-0.034,0c-0.041,0-0.08,0.001-0.122,0.001c-0.014,0-0.031,0-0.045,0
	c-0.041,0-0.078,0.001-0.119,0.001c-0.013,0-0.025,0-0.038,0c-0.052,0-0.105,0.001-0.156,0.001c-0.007,0-0.014,0-0.021,0
	c-0.044,0-0.087,0-0.131,0.001c-0.017,0-0.033,0-0.051,0c-0.036,0-0.073,0-0.109,0c-0.016,0-0.031,0-0.047,0
	c-0.052,0-0.101,0-0.154,0h-122.16l-25.352,61.827H512V55.093C512,36.585,497.003,21.575,478.491,21.575"/>
<path style="fill:#BADEF0;" d="M353.113,293.905c-0.051,0-0.102,0-0.154,0H230.801h122.158
	C353.012,293.905,353.061,293.905,353.113,293.905 M353.269,293.905c-0.036,0-0.073,0-0.109,0
	C353.197,293.905,353.235,293.905,353.269,293.905 M353.452,293.903c-0.044,0-0.087,0-0.131,0.001
	C353.365,293.903,353.408,293.903,353.452,293.903 M353.628,293.902c-0.052,0-0.104,0.001-0.156,0.001
	C353.524,293.903,353.576,293.902,353.628,293.902 M353.785,293.901c-0.04,0-0.078,0.001-0.119,0.001
	C353.707,293.901,353.743,293.901,353.785,293.901 M353.951,293.899c-0.04,0-0.082,0.001-0.122,0.001
	C353.871,293.9,353.91,293.899,353.951,293.899 M354.297,293.894c-0.103,0.001-0.208,0.003-0.311,0.005
	C354.093,293.896,354.191,293.895,354.297,293.894 M354.462,293.891c-0.04,0.001-0.083,0.001-0.124,0.002
	C354.38,293.893,354.422,293.892,354.462,293.891 M354.818,293.884c-0.109,0.002-0.216,0.005-0.325,0.007
	C354.602,293.888,354.71,293.886,354.818,293.884 M354.98,293.88c-0.054,0.001-0.104,0.002-0.158,0.003
	C354.872,293.883,354.929,293.882,354.98,293.88 M309.781,101.293l-18.919,46.138h21.147l-48.945,67.791l-26.614,64.902h129.542
	c21.956,0,41.742-9.313,55.603-24.196c-13.983,22.27-38.521,37.258-66.603,37.95c43.8-1.079,78.969-36.919,78.969-80.979
	c0-44.739-36.264-81.004-81.004-81.004c-4.202,0-8.337,0.322-12.368,0.93C332.658,120.264,322.15,109.493,309.781,101.293
	L309.781,101.293"/>
<path style="fill:#A8CFE0;" d="M421.597,255.93c-13.862,14.883-33.646,24.196-55.603,24.196H236.452l-5.65,13.78H352.96
	c0.051,0,0.102,0,0.154,0c0.016,0,0.032,0,0.047,0c0.036,0,0.073,0,0.109,0c0.017,0,0.033,0,0.051,0c0.044,0,0.087,0,0.131-0.001
	c0.007,0,0.014,0,0.021,0c0.052,0,0.104-0.001,0.156-0.001c0.013,0,0.025,0,0.038,0c0.04,0,0.078-0.001,0.119-0.001
	c0.014,0,0.031,0,0.045,0c0.04,0,0.082-0.001,0.122-0.001c0.013,0,0.023,0,0.034,0c0.103-0.001,0.208-0.002,0.311-0.005
	c0.014,0,0.028,0,0.041-0.001c0.04-0.001,0.084-0.001,0.124-0.002c0.01,0,0.02,0,0.031,0c0.109-0.002,0.217-0.005,0.325-0.007h0.002
	c0.054-0.001,0.104-0.002,0.158-0.003c0.003,0,0.012,0,0.015,0C383.076,293.188,407.615,278.199,421.597,255.93"/>
<polyline style="fill:#F67676;" points="312.009,147.431 290.863,147.431 263.065,215.222 312.009,147.431 "/>
<g>
</g>
<g>
</g>
<g>
</g>
<g>
</g>
<g>
</g>
<g>
</g>
<g>
</g>
<g>
</g>
<g>
</g>
<g>
</g>
<g>
</g>
<g>
</g>
<g>
</g>
<g>
</g>
<g>
</g>
</svg>
