<?xml version="1.0" encoding="iso-8859-1"?>
<!-- Generator: Adobe Illustrator 19.0.0, SVG Export Plug-In . SVG Version: 6.00 Build 0)  -->
<svg version="1.1" id="Layer_1" xmlns="http://www.w3.org/2000/svg" xmlns:xlink="http://www.w3.org/1999/xlink" x="0px" y="0px"
	 viewBox="0 0 508.692 508.692" style="enable-background:new 0 0 508.692 508.692;" xml:space="preserve">
<path style="fill:#4D4D4D;" d="M331.839,422.302H176.853c-15.034,0-27.22-12.186-27.22-27.22V113.61
	c0-15.034,12.188-27.22,27.22-27.22h154.986c15.034,0,27.22,12.188,27.22,27.22v281.473
	C359.059,410.115,346.873,422.302,331.839,422.302z"/>
<path style="fill:#F95428;" d="M254.346,508.691c-67.938,0-131.81-26.456-179.85-74.496S0,322.284,0,254.346
	s26.457-131.81,74.496-179.85S186.408,0,254.346,0s131.81,26.457,179.85,74.496s74.496,111.912,74.496,179.85
	s-26.456,131.81-74.496,179.85S322.284,508.691,254.346,508.691z M254.346,15C122.37,15,15,122.37,15,254.346
	s107.37,239.346,239.346,239.346s239.346-107.37,239.346-239.346S386.321,15,254.346,15z"/>
<rect x="149.63" y="149.87" style="fill:#808080;" width="209.43" height="211.5"/>
<g>
	
		<line style="fill:none;stroke:#333333;stroke-width:15;stroke-linecap:round;stroke-linejoin:round;stroke-miterlimit:10;" x1="240.98" y1="118.09" x2="267.71" y2="118.09"/>
	
		<line style="fill:none;stroke:#333333;stroke-width:15;stroke-linecap:round;stroke-linejoin:round;stroke-miterlimit:10;" x1="254.35" y1="393.88" x2="254.35" y2="393.88"/>
</g>
<rect x="7.504" y="246.849" transform="matrix(-0.7071 -0.7071 0.7071 -0.7071 254.3449 614.0505)" style="fill:#F95428;" width="493.685" height="15"/>
<g>
</g>
<g>
</g>
<g>
</g>
<g>
</g>
<g>
</g>
<g>
</g>
<g>
</g>
<g>
</g>
<g>
</g>
<g>
</g>
<g>
</g>
<g>
</g>
<g>
</g>
<g>
</g>
<g>
</g>
</svg>
