<?xml version="1.0" encoding="iso-8859-1"?>
<!-- Generator: Adobe Illustrator 19.0.0, SVG Export Plug-In . SVG Version: 6.00 Build 0)  -->
<svg version="1.1" id="Layer_1" xmlns="http://www.w3.org/2000/svg" xmlns:xlink="http://www.w3.org/1999/xlink" x="0px" y="0px"
	 viewBox="0 0 512 512" style="enable-background:new 0 0 512 512;" xml:space="preserve">
<g>
	<path style="fill:#E8EDEE;" d="M494.345,512H17.655C7.901,512,0,504.099,0,494.345V17.655C0,7.901,7.901,0,17.655,0h476.69
		C504.099,0,512,7.901,512,17.655v476.69C512,504.099,504.099,512,494.345,512"/>
	<g>
		<path style="fill:#42B05C;" d="M123.586,158.897H52.966c-4.873,0-8.828-3.955-8.828-8.828c0-4.873,3.955-8.828,8.828-8.828h70.621
			c4.873,0,8.828,3.955,8.828,8.828C132.414,154.942,128.459,158.897,123.586,158.897"/>
		<path style="fill:#42B05C;" d="M123.586,264.828H52.966c-4.873,0-8.828-3.955-8.828-8.828s3.955-8.828,8.828-8.828h70.621
			c4.873,0,8.828,3.955,8.828,8.828S128.459,264.828,123.586,264.828"/>
	</g>
	<path style="fill:#7383BF;" d="M203.034,211.862H79.448c-4.873,0-8.828-3.955-8.828-8.828c0-4.873,3.955-8.828,8.828-8.828h123.586
		c4.873,0,8.828,3.955,8.828,8.828C211.862,207.907,207.907,211.862,203.034,211.862"/>
	<path style="fill:#ED7161;" d="M203.034,317.793H52.966c-4.873,0-8.828-3.955-8.828-8.828s3.955-8.828,8.828-8.828h150.069
		c4.873,0,8.828,3.955,8.828,8.828S207.907,317.793,203.034,317.793"/>
	<path style="fill:#ECBA16;" d="M123.586,52.966H52.966c-4.873,0-8.828-3.955-8.828-8.828s3.955-8.828,8.828-8.828h70.621
		c4.873,0,8.828,3.955,8.828,8.828S128.459,52.966,123.586,52.966"/>
	<path style="fill:#ED7161;" d="M203.034,105.931H52.966c-4.873,0-8.828-3.955-8.828-8.828s3.955-8.828,8.828-8.828h150.069
		c4.873,0,8.828,3.955,8.828,8.828S207.907,105.931,203.034,105.931"/>
	<path style="fill:#ECBA16;" d="M176.552,370.759H79.448c-4.873,0-8.828-3.955-8.828-8.828s3.955-8.828,8.828-8.828h97.103
		c4.873,0,8.828,3.955,8.828,8.828S181.425,370.759,176.552,370.759"/>
	<path style="fill:#7383BF;" d="M176.552,476.69H79.448c-4.873,0-8.828-3.955-8.828-8.828s3.955-8.828,8.828-8.828h97.103
		c4.873,0,8.828,3.955,8.828,8.828S181.425,476.69,176.552,476.69"/>
	<path style="fill:#42B05C;" d="M229.517,423.724H105.931c-4.873,0-8.828-3.955-8.828-8.828s3.955-8.828,8.828-8.828h123.586
		c4.873,0,8.828,3.955,8.828,8.828S234.39,423.724,229.517,423.724"/>
	<path style="fill:#ECBA16;" d="M476.69,459.034V300.138c0-9.754-7.901-17.655-17.655-17.655H300.138
		c-9.754,0-17.655,7.901-17.655,17.655v52.966L256,379.586l26.483,26.483v52.966c0,9.754,7.901,17.655,17.655,17.655h158.897
		C468.789,476.69,476.69,468.789,476.69,459.034"/>
	<path style="fill:#0F81E0;" d="M476.69,211.862V52.966c0-9.754-7.901-17.655-17.655-17.655H300.138
		c-9.754,0-17.655,7.901-17.655,17.655v52.966L256,132.414l26.483,26.483v52.966c0,9.754,7.901,17.655,17.655,17.655h158.897
		C468.789,229.517,476.69,221.617,476.69,211.862"/>
	<g>
		<path style="fill:#FFFFFF;" d="M388.414,441.379c0-4.873-3.955-8.828-8.828-8.828s-8.828,3.955-8.828,8.828
			s3.955,8.828,8.828,8.828S388.414,446.252,388.414,441.379"/>
		<path style="fill:#FFFFFF;" d="M379.586,423.724c-4.873,0-8.828-3.955-8.828-8.828v-20.983c0-13.647,6.983-26.518,19.147-35.31
			c5.544-4.017,8.254-10.752,7.044-17.602c-1.218-6.947-7.142-12.871-14.089-14.089c-5.358-0.936-10.549,0.424-14.618,3.831
			c-4.008,3.372-6.312,8.307-6.312,13.533c0,4.873-3.955,8.828-8.828,8.828c-4.873,0-8.828-3.955-8.828-8.828
			c0-10.461,4.599-20.321,12.615-27.048c8.007-6.735,18.582-9.543,29.025-7.707c14.239,2.498,25.927,14.186,28.434,28.425
			c2.375,13.568-3.028,26.959-14.106,34.966c-7.512,5.429-11.829,13.091-11.829,21.001v20.983
			C388.414,419.769,384.459,423.724,379.586,423.724"/>
		<path style="fill:#FFFFFF;" d="M388.414,194.207c0-4.873-3.955-8.828-8.828-8.828s-8.828,3.955-8.828,8.828
			s3.955,8.828,8.828,8.828S388.414,199.08,388.414,194.207"/>
		<path style="fill:#FFFFFF;" d="M379.586,167.724c-4.873,0-8.828-3.955-8.828-8.828V70.621c0-4.873,3.955-8.828,8.828-8.828
			s8.828,3.955,8.828,8.828v88.276C388.414,163.769,384.459,167.724,379.586,167.724"/>
	</g>
</g>
<g>
</g>
<g>
</g>
<g>
</g>
<g>
</g>
<g>
</g>
<g>
</g>
<g>
</g>
<g>
</g>
<g>
</g>
<g>
</g>
<g>
</g>
<g>
</g>
<g>
</g>
<g>
</g>
<g>
</g>
</svg>
